G04 #@! TF.GenerationSoftware,KiCad,Pcbnew,7.0.5-7.0.5~ubuntu20.04.1*
G04 #@! TF.CreationDate,2023-06-26T22:48:20-07:00*
G04 #@! TF.ProjectId,encoder,656e636f-6465-4722-9e6b-696361645f70,rev?*
G04 #@! TF.SameCoordinates,Original*
G04 #@! TF.FileFunction,Copper,L2,Bot*
G04 #@! TF.FilePolarity,Positive*
%FSLAX46Y46*%
G04 Gerber Fmt 4.6, Leading zero omitted, Abs format (unit mm)*
G04 Created by KiCad (PCBNEW 7.0.5-7.0.5~ubuntu20.04.1) date 2023-06-26 22:48:20*
%MOMM*%
%LPD*%
G01*
G04 APERTURE LIST*
G04 Aperture macros list*
%AMFreePoly0*
4,1,29,0.290355,0.035355,0.305000,0.000000,0.305000,-4.391061,1.654908,-5.166646,1.659064,-5.172039,1.665355,-5.174645,1.670331,-5.186658,1.678268,-5.196957,1.677393,-5.203708,1.680000,-5.210000,1.680000,-6.000000,1.665355,-6.035355,1.630000,-6.050000,0.630000,-6.050000,0.594645,-6.035355,0.580000,-6.000000,0.580000,-5.232389,-0.288297,-4.457301,-0.288955,-4.455934,-0.290355,-4.455355,
-0.297176,-4.438887,-0.304919,-4.422831,-0.304419,-4.421401,-0.305000,-4.420000,-0.305000,0.000000,-0.290355,0.035355,-0.255000,0.050000,0.255000,0.050000,0.290355,0.035355,0.290355,0.035355,$1*%
%AMFreePoly1*
4,1,21,0.290355,0.035355,0.305000,0.000000,0.305000,-4.412425,0.547756,-5.195189,0.547047,-5.202871,0.550000,-5.210000,0.550000,-6.000000,0.535355,-6.035355,0.500000,-6.050000,-0.500000,-6.050000,-0.535355,-6.035355,-0.550000,-6.000000,-0.550000,-5.210000,-0.547047,-5.202872,-0.547756,-5.195190,-0.305000,-4.412425,-0.305000,0.000000,-0.290355,0.035355,-0.255000,0.050000,0.255000,0.050000,
0.290355,0.035355,0.290355,0.035355,$1*%
%AMFreePoly2*
4,1,29,0.290355,0.535355,0.305000,0.500000,0.305000,-3.920000,0.304419,-3.921401,0.304919,-3.922831,0.297179,-3.938880,0.290355,-3.955355,0.288954,-3.955935,0.288296,-3.957301,-0.580000,-4.732390,-0.580000,-5.500000,-0.594645,-5.535355,-0.630000,-5.550000,-1.630000,-5.550000,-1.665355,-5.535355,-1.680000,-5.500000,-1.680000,-4.710000,-1.677393,-4.703708,-1.678268,-4.696957,-1.670331,-4.686657,
-1.665355,-4.674645,-1.659065,-4.672039,-1.654909,-4.666646,-0.305000,-3.891061,-0.305000,0.500000,-0.290355,0.535355,-0.255000,0.550000,0.255000,0.550000,0.290355,0.535355,0.290355,0.535355,$1*%
G04 Aperture macros list end*
G04 #@! TA.AperFunction,ComponentPad*
%ADD10R,1.600000X1.600000*%
G04 #@! TD*
G04 #@! TA.AperFunction,ComponentPad*
%ADD11C,1.600000*%
G04 #@! TD*
G04 #@! TA.AperFunction,ComponentPad*
%ADD12C,4.000000*%
G04 #@! TD*
G04 #@! TA.AperFunction,SMDPad,CuDef*
%ADD13FreePoly0,0.000000*%
G04 #@! TD*
G04 #@! TA.AperFunction,SMDPad,CuDef*
%ADD14FreePoly1,0.000000*%
G04 #@! TD*
G04 #@! TA.AperFunction,SMDPad,CuDef*
%ADD15FreePoly2,0.000000*%
G04 #@! TD*
G04 #@! TA.AperFunction,ComponentPad*
%ADD16O,1.600000X1.600000*%
G04 #@! TD*
G04 #@! TA.AperFunction,ViaPad*
%ADD17C,0.800000*%
G04 #@! TD*
G04 #@! TA.AperFunction,Conductor*
%ADD18C,0.250000*%
G04 #@! TD*
G04 APERTURE END LIST*
D10*
G04 #@! TO.P,U2,1,GND*
G04 #@! TO.N,GND*
X94615000Y-41910000D03*
D11*
G04 #@! TO.P,U2,2,PB0_SS*
G04 #@! TO.N,unconnected-(U2-PB0_SS-Pad2)*
X92075000Y-41910000D03*
G04 #@! TO.P,U2,3,PB1_SCLK*
G04 #@! TO.N,unconnected-(U2-PB1_SCLK-Pad3)*
X89535000Y-41910000D03*
G04 #@! TO.P,U2,4,PB2_MOSI*
G04 #@! TO.N,unconnected-(U2-PB2_MOSI-Pad4)*
X86995000Y-41910000D03*
G04 #@! TO.P,U2,5,PB3_MISO*
G04 #@! TO.N,unconnected-(U2-PB3_MISO-Pad5)*
X84455000Y-41910000D03*
G04 #@! TO.P,U2,6,PB7_OC0A_OC1C_RTS*
G04 #@! TO.N,unconnected-(U2-PB7_OC0A_OC1C_RTS-Pad6)*
X81915000Y-41910000D03*
G04 #@! TO.P,U2,7,PD0_INT0_SCL_OC0B*
G04 #@! TO.N,unconnected-(U2-PD0_INT0_SCL_OC0B-Pad7)*
X79375000Y-41910000D03*
G04 #@! TO.P,U2,12,PC7_ICP3_OC4A*
G04 #@! TO.N,Net-(U1-VOUT)*
X66675000Y-41910000D03*
G04 #@! TO.P,U2,13,PD5_XCK1_CTS*
G04 #@! TO.N,unconnected-(U2-PD5_XCK1_CTS-Pad13)*
X66675000Y-44450000D03*
G04 #@! TO.P,U2,14,VCC*
G04 #@! TO.N,unconnected-(U2-VCC-Pad14)*
X66675000Y-46990000D03*
G04 #@! TO.P,U2,15,GND*
G04 #@! TO.N,GND*
X66675000Y-49530000D03*
G04 #@! TO.P,U2,16,RST*
G04 #@! TO.N,unconnected-(U2-RST-Pad16)*
X66675000Y-52070000D03*
G04 #@! TO.P,U2,17,PD4_ADC8_ICP1*
G04 #@! TO.N,unconnected-(U2-PD4_ADC8_ICP1-Pad17)*
X66675000Y-54610000D03*
G04 #@! TO.P,U2,18,PD6_ADC9_T1_OC4D_LED*
G04 #@! TO.N,unconnected-(U2-PD6_ADC9_T1_OC4D_LED-Pad18)*
X66675000Y-57150000D03*
G04 #@! TO.P,U2,23,PF7_ADC7*
G04 #@! TO.N,unconnected-(U2-PF7_ADC7-Pad23)*
X79375000Y-57150000D03*
G04 #@! TO.P,U2,24,PF6_ADC6*
G04 #@! TO.N,unconnected-(U2-PF6_ADC6-Pad24)*
X81915000Y-57150000D03*
G04 #@! TO.P,U2,25,PF5_ADC5*
G04 #@! TO.N,unconnected-(U2-PF5_ADC5-Pad25)*
X84455000Y-57150000D03*
G04 #@! TO.P,U2,26,PF4_ADC4*
G04 #@! TO.N,unconnected-(U2-PF4_ADC4-Pad26)*
X86995000Y-57150000D03*
G04 #@! TO.P,U2,27,PF1_ADC1*
G04 #@! TO.N,unconnected-(U2-PF1_ADC1-Pad27)*
X89535000Y-57150000D03*
G04 #@! TO.P,U2,28,PF0_ADC0*
G04 #@! TO.N,unconnected-(U2-PF0_ADC0-Pad28)*
X92075000Y-57150000D03*
G04 #@! TO.P,U2,29,VCC*
G04 #@! TO.N,VCC*
X94615000Y-57150000D03*
G04 #@! TO.P,U2,30,PE6_INT6_AIN0*
G04 #@! TO.N,unconnected-(U2-PE6_INT6_AIN0-Pad30)*
X84455000Y-44450000D03*
G04 #@! TO.P,U2,31,AREF*
G04 #@! TO.N,unconnected-(U2-AREF-Pad31)*
X84455000Y-54610000D03*
G04 #@! TD*
D12*
G04 #@! TO.P,U1,0*
G04 #@! TO.N,N/C*
X63470000Y-32510000D03*
X81310000Y-32510000D03*
D13*
G04 #@! TO.P,U1,1,VCC*
G04 #@! TO.N,VCC*
X73660000Y-45180000D03*
D14*
G04 #@! TO.P,U1,2,GND*
G04 #@! TO.N,GND*
X72390000Y-45180000D03*
D15*
G04 #@! TO.P,U1,3,VOUT*
G04 #@! TO.N,Net-(U1-VOUT)*
X71120000Y-45680000D03*
G04 #@! TD*
D11*
G04 #@! TO.P,R1,1*
G04 #@! TO.N,VCC*
X80010000Y-52705000D03*
D16*
G04 #@! TO.P,R1,2*
G04 #@! TO.N,Net-(U1-VOUT)*
X80010000Y-45085000D03*
G04 #@! TD*
D17*
G04 #@! TO.N,Net-(U1-VOUT)*
X69940714Y-50757595D03*
G04 #@! TO.N,GND*
X72362624Y-50706065D03*
G04 #@! TO.N,VCC*
X74758770Y-50706065D03*
G04 #@! TD*
D18*
G04 #@! TO.N,GND*
X66675000Y-49530000D02*
X66675000Y-50165000D01*
X66675000Y-50165000D02*
X68580000Y-52070000D01*
X68580000Y-52070000D02*
X71697450Y-52070000D01*
X71697450Y-52070000D02*
X72390000Y-51377450D01*
X72390000Y-51377450D02*
X72390000Y-50800000D01*
G04 #@! TO.N,VCC*
X80010000Y-52705000D02*
X76835000Y-52705000D01*
X76835000Y-52705000D02*
X74930000Y-50800000D01*
G04 #@! TO.N,Net-(U1-VOUT)*
X80010000Y-45085000D02*
X79210001Y-44285001D01*
X79210001Y-44285001D02*
X71284999Y-44285001D01*
X71284999Y-44285001D02*
X71120000Y-44450000D01*
X71120000Y-44450000D02*
X71120000Y-45720000D01*
X66675000Y-41910000D02*
X66675000Y-42141777D01*
X66675000Y-42141777D02*
X70213223Y-45680000D01*
X70213223Y-45680000D02*
X71120000Y-45680000D01*
G04 #@! TD*
M02*
