M48
INCH,TZ
T1C0.0157
T2C0.0315
T3C0.0433
T4C0.1181
%
G90
G05
T1
X27536Y-19983
X28489Y-19963
X29433Y-19963
T2
X31500Y-17750
X31500Y-20750
T3
X26250Y-16500
X26250Y-17500
X26250Y-18500
X26250Y-19500
X26250Y-20500
X26250Y-21500
X26250Y-22500
X31250Y-16500
X31250Y-22500
X32250Y-16500
X32250Y-22500
X33250Y-16500
X33250Y-17500
X33250Y-21500
X33250Y-22500
X34250Y-16500
X34250Y-22500
X35250Y-16500
X35250Y-22500
X36250Y-16500
X36250Y-22500
X37250Y-16500
X37250Y-22500
T4
X24988Y-12799
X32012Y-12799
T0
M30
