G04 #@! TF.GenerationSoftware,KiCad,Pcbnew,7.0.5-7.0.5~ubuntu20.04.1*
G04 #@! TF.CreationDate,2023-06-26T22:48:21-07:00*
G04 #@! TF.ProjectId,encoder,656e636f-6465-4722-9e6b-696361645f70,rev?*
G04 #@! TF.SameCoordinates,Original*
G04 #@! TF.FileFunction,Legend,Top*
G04 #@! TF.FilePolarity,Positive*
%FSLAX46Y46*%
G04 Gerber Fmt 4.6, Leading zero omitted, Abs format (unit mm)*
G04 Created by KiCad (PCBNEW 7.0.5-7.0.5~ubuntu20.04.1) date 2023-06-26 22:48:21*
%MOMM*%
%LPD*%
G01*
G04 APERTURE LIST*
%ADD10C,0.150000*%
%ADD11C,0.100000*%
%ADD12C,0.120000*%
G04 APERTURE END LIST*
D10*
G04 #@! TO.C,U2*
X79883095Y-59144819D02*
X79883095Y-59954342D01*
X79883095Y-59954342D02*
X79930714Y-60049580D01*
X79930714Y-60049580D02*
X79978333Y-60097200D01*
X79978333Y-60097200D02*
X80073571Y-60144819D01*
X80073571Y-60144819D02*
X80264047Y-60144819D01*
X80264047Y-60144819D02*
X80359285Y-60097200D01*
X80359285Y-60097200D02*
X80406904Y-60049580D01*
X80406904Y-60049580D02*
X80454523Y-59954342D01*
X80454523Y-59954342D02*
X80454523Y-59144819D01*
X80883095Y-59240057D02*
X80930714Y-59192438D01*
X80930714Y-59192438D02*
X81025952Y-59144819D01*
X81025952Y-59144819D02*
X81264047Y-59144819D01*
X81264047Y-59144819D02*
X81359285Y-59192438D01*
X81359285Y-59192438D02*
X81406904Y-59240057D01*
X81406904Y-59240057D02*
X81454523Y-59335295D01*
X81454523Y-59335295D02*
X81454523Y-59430533D01*
X81454523Y-59430533D02*
X81406904Y-59573390D01*
X81406904Y-59573390D02*
X80835476Y-60144819D01*
X80835476Y-60144819D02*
X81454523Y-60144819D01*
D11*
G04 #@! TO.C,U1*
X71628095Y-32017419D02*
X71628095Y-32826942D01*
X71628095Y-32826942D02*
X71675714Y-32922180D01*
X71675714Y-32922180D02*
X71723333Y-32969800D01*
X71723333Y-32969800D02*
X71818571Y-33017419D01*
X71818571Y-33017419D02*
X72009047Y-33017419D01*
X72009047Y-33017419D02*
X72104285Y-32969800D01*
X72104285Y-32969800D02*
X72151904Y-32922180D01*
X72151904Y-32922180D02*
X72199523Y-32826942D01*
X72199523Y-32826942D02*
X72199523Y-32017419D01*
X73199523Y-33017419D02*
X72628095Y-33017419D01*
X72913809Y-33017419D02*
X72913809Y-32017419D01*
X72913809Y-32017419D02*
X72818571Y-32160276D01*
X72818571Y-32160276D02*
X72723333Y-32255514D01*
X72723333Y-32255514D02*
X72628095Y-32303133D01*
D10*
G04 #@! TO.C,U2*
X97155000Y-53340000D02*
X88265000Y-53340000D01*
X97155000Y-45720000D02*
X97155000Y-53340000D01*
X95885000Y-58420000D02*
X65405000Y-58420000D01*
X95885000Y-40640000D02*
X95885000Y-58420000D01*
X88265000Y-53340000D02*
X88265000Y-45720000D01*
X88265000Y-45720000D02*
X97155000Y-45720000D01*
X71755000Y-52070000D02*
X71755000Y-49530000D01*
X71755000Y-49530000D02*
X71755000Y-48260000D01*
X71755000Y-48260000D02*
X67945000Y-48260000D01*
X71755000Y-46990000D02*
X71755000Y-44450000D01*
X71755000Y-44450000D02*
X67945000Y-44450000D01*
X67945000Y-52070000D02*
X71755000Y-52070000D01*
X67945000Y-48260000D02*
X67945000Y-52070000D01*
X67945000Y-46990000D02*
X71755000Y-46990000D01*
X67945000Y-44450000D02*
X67945000Y-46990000D01*
X65405000Y-58420000D02*
X65405000Y-40640000D01*
X65405000Y-40640000D02*
X95885000Y-40640000D01*
D12*
G04 #@! TO.C,R1*
X78640000Y-52165000D02*
X78640000Y-45625000D01*
X78970000Y-52165000D02*
X78640000Y-52165000D01*
X81050000Y-52165000D02*
X81380000Y-52165000D01*
X81380000Y-52165000D02*
X81380000Y-45625000D01*
X78640000Y-45625000D02*
X78970000Y-45625000D01*
X81380000Y-45625000D02*
X81050000Y-45625000D01*
G04 #@! TD*
M02*
